<svg xmlns="http://www.w3.org/2000/svg" viewBox="0 0 52.2 99.13"><defs><style>.cls-1{fill:#4d4d4d;}</style></defs><title>location</title><g id="Layer_2" data-name="Layer 2"><g id="Layer_1-2" data-name="Layer 1"><path class="cls-1" d="M30.21,87l-4,8-4-8s-16,2-15,6c2.23,9,38,7,38,1S30.21,87,30.21,87Z"/><path class="cls-1" d="M42.74,5.28c-10.15-7-21.32-7-32.3-.25h0C1,10.86-2.67,23.7,2.05,34.25l24.1,54L50.23,33.3C54.63,23.26,51.41,11.22,42.74,5.28ZM42,29.68,26.07,66,10.26,30.58c-2.91-6.52-.75-14.38,4.92-17.89h0c7.94-4.91,15.29-4.91,22.48,0C42.82,16.24,44.69,23.54,42,29.68Z"/><circle class="cls-1" cx="26.21" cy="27.02" r="6"/></g></g></svg>