<?xml version="1.0" encoding="utf-8"?>
<!-- Generator: Adobe Illustrator 22.1.0, SVG Export Plug-In . SVG Version: 6.00 Build 0)  -->
<svg version="1.1" id="Capa_1" xmlns="http://www.w3.org/2000/svg" xmlns:xlink="http://www.w3.org/1999/xlink" x="0px" y="0px"
	 viewBox="0 0 326.6 477.4" style="enable-background:new 0 0 326.6 477.4;" xml:space="preserve">
<g>
	<g>
		<circle cx="173.8" cy="160.6" r="6.4"/>
		<circle cx="145.6" cy="160.6" r="11.8"/>
		<path d="M288,113.7H138.2c-21.3,0-38.6,17.3-38.6,38.6v286.5c0,21.3,17.3,38.6,38.6,38.6H288c21.3,0,38.6-17.3,38.6-38.6V152.3
			C326.6,131,309.3,113.7,288,113.7z M170.6,182.8h-26.5c-12.3,0-22.3-10-22.3-22.2s10-22.2,22.3-22.2h26.5
			c12.3,0,22.2,10,22.2,22.2C192.8,172.9,182.9,182.8,170.6,182.8z"/>
		<polygon points="40.7,110.8 102.2,102.9 108.2,43.5 146.5,95.6 185.3,74.7 178.6,95.6 195.6,95.6 213.1,41.3 151.2,74.6 96.4,0 
			87.3,88.4 0,99.7 61.5,147.6 12.9,212.6 82.6,201.3 82.6,184.8 50,190.1 84.1,144.6 		"/>
	</g>
</g>
</svg>
